<?xml version="1.0" encoding="UTF-8" standalone="no"?>
<!-- Created with Inkscape (http://www.inkscape.org/) -->

<svg
   xmlns:dc="http://purl.org/dc/elements/1.1/"
   xmlns:cc="http://creativecommons.org/ns#"
   xmlns:rdf="http://www.w3.org/1999/02/22-rdf-syntax-ns#"
   xmlns:svg="http://www.w3.org/2000/svg"
   xmlns="http://www.w3.org/2000/svg"
   xmlns:sodipodi="http://sodipodi.sourceforge.net/DTD/sodipodi-0.dtd"
   xmlns:inkscape="http://www.inkscape.org/namespaces/inkscape"
   width="1482.2693"
   height="1383.8121"
   id="svg2"
   version="1.1"
   inkscape:version="0.48.2 r9819"
   sodipodi:docname="simple_write.svg">
  <defs
     id="defs4">
    <inkscape:path-effect
       effect="construct_grid"
       id="path-effect4692"
       is_visible="true"
       nr_x="10"
       nr_y="1" />
    <inkscape:path-effect
       effect="construct_grid"
       id="path-effect4684"
       is_visible="true"
       nr_x="1"
       nr_y="10" />
    <marker
       inkscape:stockid="Arrow2Lend"
       orient="auto"
       refY="0"
       refX="0"
       id="Arrow2Lend"
       style="overflow:visible">
      <path
         id="path3795"
         style="font-size:12px;fill-rule:evenodd;stroke-width:0.625;stroke-linejoin:round"
         d="M 8.7185878,4.0337352 -2.2072895,0.01601326 8.7185884,-4.0017078 c -1.7454984,2.3720609 -1.7354408,5.6174519 -6e-7,8.035443 z"
         transform="matrix(-1.1,0,0,-1.1,-1.1,0)"
         inkscape:connector-curvature="0" />
    </marker>
    <marker
       inkscape:stockid="Arrow2Mend"
       orient="auto"
       refY="0"
       refX="0"
       id="Arrow2Mend"
       style="overflow:visible">
      <path
         id="path3801"
         style="font-size:12px;fill-rule:evenodd;stroke-width:0.625;stroke-linejoin:round"
         d="M 8.7185878,4.0337352 -2.2072895,0.01601326 8.7185884,-4.0017078 c -1.7454984,2.3720609 -1.7354408,5.6174519 -6e-7,8.035443 z"
         transform="scale(-0.6,-0.6)"
         inkscape:connector-curvature="0" />
    </marker>
    <inkscape:path-effect
       effect="construct_grid"
       id="path-effect2999"
       is_visible="true"
       nr_x="10"
       nr_y="5" />
    <inkscape:path-effect
       effect="construct_grid"
       id="path-effect2995"
       is_visible="true"
       nr_x="10"
       nr_y="5" />
    <inkscape:path-effect
       effect="construct_grid"
       id="path-effect2991"
       is_visible="true"
       nr_x="10"
       nr_y="10" />
    <marker
       inkscape:stockid="Arrow2Lend"
       orient="auto"
       refY="0"
       refX="0"
       id="Arrow2Lend-6"
       style="overflow:visible">
      <path
         inkscape:connector-curvature="0"
         id="path3795-5"
         style="font-size:12px;fill-rule:evenodd;stroke-width:0.625;stroke-linejoin:round"
         d="M 8.7185878,4.0337352 -2.2072895,0.01601326 8.7185884,-4.0017078 c -1.7454984,2.3720609 -1.7354408,5.6174519 -6e-7,8.035443 z"
         transform="matrix(-1.1,0,0,-1.1,-1.1,0)" />
    </marker>
    <marker
       inkscape:stockid="Arrow2Lend"
       orient="auto"
       refY="0"
       refX="0"
       id="Arrow2Lend-2"
       style="overflow:visible">
      <path
         inkscape:connector-curvature="0"
         id="path3795-2"
         style="font-size:12px;fill-rule:evenodd;stroke-width:0.625;stroke-linejoin:round"
         d="M 8.7185878,4.0337352 -2.2072895,0.01601326 8.7185884,-4.0017078 c -1.7454984,2.3720609 -1.7354408,5.6174519 -6e-7,8.035443 z"
         transform="matrix(-1.1,0,0,-1.1,-1.1,0)" />
    </marker>
  </defs>
  <sodipodi:namedview
     id="base"
     pagecolor="#ffffff"
     bordercolor="#666666"
     borderopacity="1.0"
     inkscape:pageopacity="0.0"
     inkscape:pageshadow="2"
     inkscape:zoom="0.61308345"
     inkscape:cx="938.43738"
     inkscape:cy="748.88492"
     inkscape:document-units="px"
     inkscape:current-layer="layer1"
     showgrid="true"
     inkscape:window-width="1920"
     inkscape:window-height="1176"
     inkscape:window-x="0"
     inkscape:window-y="24"
     inkscape:window-maximized="1"
     fit-margin-top="0"
     fit-margin-left="0"
     fit-margin-right="0"
     fit-margin-bottom="0">
    <inkscape:grid
       type="xygrid"
       id="grid2985"
       units="mm"
       empspacing="4"
       visible="true"
       enabled="true"
       snapvisiblegridlinesonly="true" />
  </sodipodi:namedview>
  <metadata
     id="metadata7">
    <rdf:RDF>
      <cc:Work
         rdf:about="">
        <dc:format>image/svg+xml</dc:format>
        <dc:type
           rdf:resource="http://purl.org/dc/dcmitype/StillImage" />
        <dc:title></dc:title>
      </cc:Work>
    </rdf:RDF>
  </metadata>
  <g
     inkscape:label="Layer 1"
     inkscape:groupmode="layer"
     id="layer1"
     transform="translate(-53.605748,19.638978)">
    <path
       style="fill:#ffa960;fill-opacity:1;stroke:none"
       d="m 184.25199,644.99537 0,-89.89721 449.48615,449.48614 898.97226,0 0,89.8972 -898.97226,0 z"
       id="path4688"
       inkscape:connector-curvature="0" />
    <path
       style="fill:none;stroke:#000000;stroke-width:6.34274912px;stroke-linecap:butt;stroke-linejoin:miter;stroke-opacity:1"
       d="m 184.25199,105.61199 449.4861,449.4862 m -359.58887,-449.4862 449.4861,449.4862 m -359.58887,-449.4862 449.4861,449.4862 m -359.58887,-449.4862 449.4861,449.4862 m -359.58887,-449.4862 449.4861,449.4862 m -359.58887,-449.4862 449.48606,449.4862 m -359.58883,-449.4862 449.48613,449.4862 m -359.5889,-449.4862 449.4861,449.4862 m -359.58887,-449.4862 449.48607,449.4862 m -359.58884,-449.4862 449.48614,449.4862 m -359.5889,-449.4862 449.4861,449.4862 m -1348.45841,-449.4862 898.97231,0 m -854.0237,44.94862 898.9723,0 m -854.02369,44.94862 898.97229,0 m -854.02368,44.94862 898.97228,0 m -854.02367,44.94862 898.97227,0 m -854.02366,44.94862 898.97226,0 m -854.02365,44.94862 898.97225,0 m -854.02364,44.94862 898.97234,0 m -854.02373,44.94862 898.97233,0 m -854.02372,44.94862 898.97232,0 m -854.02371,44.94862 898.97231,0"
       id="path2989"
       inkscape:connector-curvature="0"
       inkscape:path-effect="#path-effect2991"
       inkscape:original-d="m 229.2006,150.56061 -44.94861,-44.94862 89.89723,0"
       sodipodi:nodetypes="ccc" />
    <path
       style="fill:none;stroke:#000000;stroke-width:6.34274912px;stroke-linecap:butt;stroke-linejoin:miter;stroke-opacity:1"
       d="m 184.25199,105.61199 0,449.48615 m 44.94861,-404.53753 0,449.48615 m 44.94861,-404.53753 0,449.48615 m 44.94861,-404.53753 0,449.48615 m 44.94861,-404.53753 0,449.48615 m 44.94861,-404.53753 0,449.48615 m 44.94861,-404.53753 0,449.48615 m 44.94861,-404.53753 0,449.48615 m 44.94861,-404.53753 0,449.48615 m 44.94861,-404.53753 0,449.48615 m 44.94861,-404.53753 0,449.48611 m -449.4861,-898.97231 449.4861,449.4862 m -449.4861,-359.58897 449.4861,449.4862 m -449.4861,-359.58897 449.4861,449.4862 m -449.4861,-359.58897 449.4861,449.4862 m -449.4861,-359.58897 449.4861,449.4862 m -449.4861,-359.58897 449.4861,449.48616"
       id="path2993"
       inkscape:connector-curvature="0"
       inkscape:path-effect="#path-effect2995"
       inkscape:original-d="m 184.25199,195.50922 0,-89.89723 44.94861,44.94862"
       sodipodi:nodetypes="ccc" />
    <path
       style="fill:none;stroke:#000000;stroke-width:6.34274912px;stroke-linecap:butt;stroke-linejoin:miter;stroke-opacity:1"
       d="m 633.73814,555.09816 0,449.48604 m 89.8972,-449.48604 0,449.48604 m 89.8972,-449.48604 0,449.48604 m 89.8972,-449.48604 0,449.48604 m 89.8972,-449.48604 0,449.48604 m 89.89716,-449.48604 0,449.48604 m 89.8972,-449.48604 0,449.48604 m 89.8972,-449.48604 0,449.48604 m 89.8972,-449.48604 0,449.48604 m 89.8972,-449.48604 0,449.48604 m 89.8972,-449.48604 0,449.48604 m -898.97196,-449.48604 898.97196,0 m -898.97196,89.89721 898.97196,0 m -898.97196,89.89721 898.97196,0 m -898.97196,89.89721 898.97196,0 m -898.97196,89.89721 898.97196,0 m -898.97196,89.8972 898.97196,0"
       id="path2997"
       inkscape:connector-curvature="0"
       inkscape:path-effect="#path-effect2999"
       inkscape:original-d="m 633.73814,644.99537 0,-89.89721 89.8972,0" />
    <path
       style="fill:#0000da;fill-opacity:1;stroke:#000000;stroke-width:0;stroke-linecap:butt;stroke-linejoin:miter;stroke-miterlimit:4;stroke-opacity:1;stroke-dasharray:none;marker-end:url(#Arrow2Lend)"
       d="m 94.354754,105.61199 0,179.79447"
       id="path3001"
       inkscape:connector-curvature="0" />
    <path
       style="fill:none;stroke:#000000;stroke-width:3.17137456;stroke-linecap:butt;stroke-linejoin:miter;stroke-miterlimit:4;stroke-opacity:1;stroke-dasharray:none;marker-end:url(#Arrow2Lend)"
       d="m 139.30338,105.61199 0,179.79447"
       id="path4401"
       inkscape:connector-curvature="0" />
    <path
       style="fill:none;stroke:#000000;stroke-width:3.17137456;stroke-linecap:butt;stroke-linejoin:miter;stroke-miterlimit:4;stroke-opacity:1;stroke-dasharray:none;marker-end:url(#Arrow2Lend)"
       d="m 184.25199,60.663378 179.79448,0"
       id="path4401-0"
       inkscape:connector-curvature="0" />
    <path
       style="fill:none;stroke:#000000;stroke-width:3.17137456;stroke-linecap:butt;stroke-linejoin:miter;stroke-miterlimit:4;stroke-opacity:1;stroke-dasharray:none;marker-end:url(#Arrow2Lend)"
       d="m 1083.2243,60.663378 89.8972,89.897232"
       id="path4401-6"
       inkscape:connector-curvature="0"
       sodipodi:nodetypes="cc" />
    <text
       xml:space="preserve"
       style="font-size:76.11299133px;font-style:normal;font-variant:normal;font-weight:normal;font-stretch:normal;text-align:start;line-height:125%;letter-spacing:0px;word-spacing:0px;writing-mode:lr-tb;text-anchor:start;fill:#000000;fill-opacity:1;stroke:none;font-family:Sans;-inkscape-font-specification:Sans"
       x="184.25198"
       y="38.189056"
       id="text4622"
       sodipodi:linespacing="125%"><tspan
         sodipodi:role="line"
         id="tspan4624"
         x="184.25198"
         y="38.189056">dim=1</tspan></text>
    <text
       xml:space="preserve"
       style="font-size:76.11299133px;font-style:normal;font-variant:normal;font-weight:normal;font-stretch:normal;text-align:start;line-height:125%;letter-spacing:0px;word-spacing:0px;writing-mode:lr-tb;text-anchor:start;fill:#000000;fill-opacity:1;stroke:none;font-family:Sans;-inkscape-font-specification:Sans"
       x="1083.2244"
       y="-924.13226"
       id="text4622-2"
       sodipodi:linespacing="125%"
       transform="matrix(1,0.88838606,0,1,0,0)"><tspan
         sodipodi:role="line"
         id="tspan4647"
         x="1083.2244"
         y="-924.13226">dim=2</tspan></text>
    <text
       xml:space="preserve"
       style="font-size:76.11299133px;font-style:normal;font-variant:normal;font-weight:normal;font-stretch:normal;text-align:start;line-height:125%;letter-spacing:0px;word-spacing:0px;writing-mode:lr-tb;text-anchor:start;fill:#000000;fill-opacity:1;stroke:none;font-family:Sans;-inkscape-font-specification:Sans"
       x="-262.93216"
       y="116.82906"
       id="text4622-5"
       sodipodi:linespacing="125%"
       transform="matrix(0,-1,1,0,0,0)"><tspan
         sodipodi:role="line"
         id="tspan4624-1"
         x="-262.93216"
         y="116.82906">dim=0</tspan></text>
    <path
       style="fill:#ffa960;fill-opacity:1;stroke:#000000;stroke-width:6.34274912px;stroke-linecap:butt;stroke-linejoin:miter;stroke-opacity:1"
       d="m 184.25199,555.09816 449.4861,449.48634 m -449.4861,-359.58913 449.4861,449.48633 m -449.4861,-539.38354 0,89.89721 m 44.94861,-44.94858 0,89.89721 m 44.94861,-44.94858 0,89.89721 m 44.94861,-44.94858 0,89.89721 m 44.94861,-44.94858 0,89.89721 m 44.94861,-44.94858 0,89.89721 m 44.94861,-44.94858 0,89.89721 m 44.94861,-44.94858 0,89.89721 m 44.94861,-44.94858 0,89.8972 m 44.94861,-44.94857 0,89.89717 m 44.94861,-44.9485 0,89.8972"
       id="path4682"
       inkscape:connector-curvature="0"
       inkscape:path-effect="#path-effect4684"
       inkscape:original-d="m 229.2006,600.04679 -44.94861,-44.94863 0,89.89721" />
    <path
       style="fill:none;stroke:#000000;stroke-width:6.34274912px;stroke-linecap:butt;stroke-linejoin:miter;stroke-opacity:1"
       d="m 633.73814,1004.5843 0,89.8972 m 89.8972,-89.8972 0,89.8972 m 89.8972,-89.8972 0,89.8972 m 89.8972,-89.8972 0,89.8972 m 89.8972,-89.8972 0,89.8972 m 89.89716,-89.8972 0,89.8972 m 89.8972,-89.8972 0,89.8972 m 89.8972,-89.8972 0,89.8972 m 89.8972,-89.8972 0,89.8972 m 89.8972,-89.8972 0,89.8972 m 89.8972,-89.8972 0,89.8972 m -898.97196,-89.8972 898.97196,0 m -898.97196,89.8972 898.97196,0"
       id="path4690"
       inkscape:connector-curvature="0"
       inkscape:path-effect="#path-effect4692"
       inkscape:original-d="m 633.73814,1094.4815 0,-89.8972 89.8972,0" />
    <path
       style="fill:none;stroke:#000000;stroke-width:6.34274912;stroke-linecap:butt;stroke-linejoin:miter;stroke-miterlimit:4;stroke-opacity:1;stroke-dasharray:19.02824737, 19.02824737;stroke-dashoffset:0"
       d="m 184.25199,644.99537 0,179.79451"
       id="path4694"
       inkscape:connector-curvature="0" />
    <path
       style="fill:none;stroke:#000000;stroke-width:6.34274912;stroke-linecap:butt;stroke-linejoin:miter;stroke-miterlimit:4;stroke-opacity:1;stroke-dasharray:19.02824737, 19.02824737;stroke-dashoffset:0"
       d="m 229.2006,689.94395 0,179.79451"
       id="path4694-5"
       inkscape:connector-curvature="0" />
    <path
       style="fill:none;stroke:#000000;stroke-width:6.34274912;stroke-linecap:butt;stroke-linejoin:miter;stroke-miterlimit:4;stroke-opacity:1;stroke-dasharray:19.02824737, 19.02824737;stroke-dashoffset:0"
       d="m 274.14922,734.89263 0,179.7945"
       id="path4694-8"
       inkscape:connector-curvature="0" />
    <path
       style="fill:none;stroke:#000000;stroke-width:6.34274912;stroke-linecap:butt;stroke-linejoin:miter;stroke-miterlimit:4;stroke-opacity:1;stroke-dasharray:19.02824737, 19.02824737;stroke-dashoffset:0"
       d="m 319.09785,779.84121 0,179.7945"
       id="path4694-0"
       inkscape:connector-curvature="0" />
    <path
       style="fill:none;stroke:#000000;stroke-width:6.34274912;stroke-linecap:butt;stroke-linejoin:miter;stroke-miterlimit:4;stroke-opacity:1;stroke-dasharray:19.02824737, 19.02824737;stroke-dashoffset:0"
       d="m 364.04643,824.78988 0,179.79442"
       id="path4694-86"
       inkscape:connector-curvature="0" />
    <path
       style="fill:none;stroke:#000000;stroke-width:6.34274912;stroke-linecap:butt;stroke-linejoin:miter;stroke-miterlimit:4;stroke-opacity:1;stroke-dasharray:19.02824737, 19.02824737;stroke-dashoffset:0"
       d="m 408.99505,869.73846 0,179.79444"
       id="path4694-9"
       inkscape:connector-curvature="0" />
    <path
       style="fill:none;stroke:#000000;stroke-width:6.34274912;stroke-linecap:butt;stroke-linejoin:miter;stroke-miterlimit:4;stroke-opacity:1;stroke-dasharray:19.02824737, 19.02824737;stroke-dashoffset:0"
       d="m 453.94367,914.68713 0,179.79447"
       id="path4694-3"
       inkscape:connector-curvature="0" />
    <path
       style="fill:none;stroke:#000000;stroke-width:6.34274912;stroke-linecap:butt;stroke-linejoin:miter;stroke-miterlimit:4;stroke-opacity:1;stroke-dasharray:19.02824737, 19.02824737;stroke-dashoffset:0"
       d="m 498.8923,959.63571 0,179.79449"
       id="path4694-37"
       inkscape:connector-curvature="0" />
    <path
       style="fill:none;stroke:#000000;stroke-width:6.34274912;stroke-linecap:butt;stroke-linejoin:miter;stroke-miterlimit:4;stroke-opacity:1;stroke-dasharray:19.02824737, 19.02824737;stroke-dashoffset:0"
       d="m 543.84094,1004.5843 0,179.7945"
       id="path4694-4"
       inkscape:connector-curvature="0" />
    <path
       style="fill:none;stroke:#000000;stroke-width:6.34274912;stroke-linecap:butt;stroke-linejoin:miter;stroke-miterlimit:4;stroke-opacity:1;stroke-dasharray:19.02824737, 19.02824737;stroke-dashoffset:0"
       d="m 588.78952,1049.5329 0,179.7945"
       id="path4694-371"
       inkscape:connector-curvature="0" />
    <path
       style="fill:none;stroke:#000000;stroke-width:6.34274912;stroke-linecap:butt;stroke-linejoin:miter;stroke-miterlimit:4;stroke-opacity:1;stroke-dasharray:19.02824737, 19.02824737;stroke-dashoffset:0"
       d="m 633.73814,1094.4815 0,179.7945"
       id="path4694-39"
       inkscape:connector-curvature="0" />
    <path
       style="fill:none;stroke:#000000;stroke-width:6.34274912;stroke-linecap:butt;stroke-linejoin:miter;stroke-miterlimit:4;stroke-opacity:1;stroke-dasharray:19.02824737, 19.02824737;stroke-dashoffset:0"
       d="m 723.63534,1094.4815 0,179.7945"
       id="path4694-6"
       inkscape:connector-curvature="0" />
    <path
       style="fill:none;stroke:#000000;stroke-width:6.34274912;stroke-linecap:butt;stroke-linejoin:miter;stroke-miterlimit:4;stroke-opacity:1;stroke-dasharray:19.02824737, 19.02824737;stroke-dashoffset:0"
       d="m 813.53259,1094.4815 0,179.7945"
       id="path4694-42"
       inkscape:connector-curvature="0" />
    <path
       style="fill:none;stroke:#000000;stroke-width:6.34274912;stroke-linecap:butt;stroke-linejoin:miter;stroke-miterlimit:4;stroke-opacity:1;stroke-dasharray:19.02824737, 19.02824737;stroke-dashoffset:0"
       d="m 903.42986,1094.4815 0,179.7945"
       id="path4694-02"
       inkscape:connector-curvature="0" />
    <path
       style="fill:none;stroke:#000000;stroke-width:6.34274912;stroke-linecap:butt;stroke-linejoin:miter;stroke-miterlimit:4;stroke-opacity:1;stroke-dasharray:19.02824737, 19.02824737;stroke-dashoffset:0"
       d="m 993.3271,1094.4815 0,179.7945"
       id="path4694-95"
       inkscape:connector-curvature="0" />
    <path
       style="fill:none;stroke:#000000;stroke-width:6.34274912;stroke-linecap:butt;stroke-linejoin:miter;stroke-miterlimit:4;stroke-opacity:1;stroke-dasharray:19.02824737, 19.02824737;stroke-dashoffset:0"
       d="m 1083.2243,1094.4815 0,179.7945"
       id="path4694-7"
       inkscape:connector-curvature="0" />
    <path
       style="fill:none;stroke:#000000;stroke-width:6.34274912;stroke-linecap:butt;stroke-linejoin:miter;stroke-miterlimit:4;stroke-opacity:1;stroke-dasharray:19.02824737, 19.02824737;stroke-dashoffset:0"
       d="m 1173.1215,1094.4815 0,179.7945"
       id="path4694-46"
       inkscape:connector-curvature="0" />
    <path
       style="fill:none;stroke:#000000;stroke-width:6.34274912;stroke-linecap:butt;stroke-linejoin:miter;stroke-miterlimit:4;stroke-opacity:1;stroke-dasharray:19.02824737, 19.02824737;stroke-dashoffset:0"
       d="m 1263.0188,1094.4815 0,179.7945"
       id="path4694-49"
       inkscape:connector-curvature="0" />
    <path
       style="fill:none;stroke:#000000;stroke-width:6.34274912;stroke-linecap:butt;stroke-linejoin:miter;stroke-miterlimit:4;stroke-opacity:1;stroke-dasharray:19.02824737, 19.02824737;stroke-dashoffset:0"
       d="m 1352.916,1094.4815 0,179.7945"
       id="path4694-1"
       inkscape:connector-curvature="0" />
    <path
       style="fill:none;stroke:#000000;stroke-width:6.34274912;stroke-linecap:butt;stroke-linejoin:miter;stroke-miterlimit:4;stroke-opacity:1;stroke-dasharray:19.02824737, 19.02824737;stroke-dashoffset:0"
       d="m 1442.8132,1094.4815 0,179.7945"
       id="path4694-2"
       inkscape:connector-curvature="0" />
    <path
       style="fill:none;stroke:#000000;stroke-width:6.34274912;stroke-linecap:butt;stroke-linejoin:miter;stroke-miterlimit:4;stroke-opacity:1;stroke-dasharray:19.02824737, 19.02824737;stroke-dashoffset:0"
       d="m 1532.7104,1094.4815 0,179.7945"
       id="path4694-31"
       inkscape:connector-curvature="0" />
    <path
       style="fill:#01be09;fill-opacity:1;stroke:none"
       d="m 1038.2757,1094.4815 89.8972,0 0,179.7945 44.9486,0 -89.8972,89.8972 -89.8972,-89.8972 44.9486,0 z"
       id="path4885"
       inkscape:connector-curvature="0" />
    <path
       style="fill:#01be09;fill-opacity:1;stroke:none"
       d="m 319.09785,779.84115 89.8972,89.89731 0,179.79444 44.94858,44.9485 -89.89716,1e-4 -89.89723,-179.79451 44.94861,44.94858 z"
       id="path4885-2"
       inkscape:connector-curvature="0"
       inkscape:transform-center-x="44.948614"
       inkscape:transform-center-y="67.422923" />
    <text
       xml:space="preserve"
       style="font-size:76.11299133px;font-style:normal;font-variant:normal;font-weight:normal;font-stretch:normal;text-align:start;line-height:125%;letter-spacing:0px;word-spacing:0px;writing-mode:lr-tb;text-anchor:start;fill:#000000;fill-opacity:1;stroke:none;font-family:Sans;-inkscape-font-specification:Sans"
       x="49.406155"
       y="1116.9559"
       id="text4905"
       sodipodi:linespacing="125%"><tspan
         sodipodi:role="line"
         id="tspan4907"
         x="49.406155"
         y="1116.9559">growth</tspan><tspan
         sodipodi:role="line"
         x="49.406155"
         y="1212.0972"
         id="tspan4909">dimension</tspan></text>
  </g>
</svg>
