<?xml version="1.0" encoding="UTF-8" standalone="no"?>
<!-- Created with Inkscape (http://www.inkscape.org/) -->

<svg
   xmlns:dc="http://purl.org/dc/elements/1.1/"
   xmlns:cc="http://creativecommons.org/ns#"
   xmlns:rdf="http://www.w3.org/1999/02/22-rdf-syntax-ns#"
   xmlns:svg="http://www.w3.org/2000/svg"
   xmlns="http://www.w3.org/2000/svg"
   xmlns:sodipodi="http://sodipodi.sourceforge.net/DTD/sodipodi-0.dtd"
   xmlns:inkscape="http://www.inkscape.org/namespaces/inkscape"
   width="898.11755"
   height="1284.8168"
   id="svg2"
   version="1.1"
   inkscape:version="0.48.2 r9819"
   sodipodi:docname="simple_read.svg">
  <defs
     id="defs4">
    <inkscape:path-effect
       effect="construct_grid"
       id="path-effect4692"
       is_visible="true"
       nr_x="10"
       nr_y="1" />
    <inkscape:path-effect
       effect="construct_grid"
       id="path-effect4684"
       is_visible="true"
       nr_x="1"
       nr_y="10" />
    <marker
       inkscape:stockid="Arrow2Lend"
       orient="auto"
       refY="0"
       refX="0"
       id="Arrow2Lend"
       style="overflow:visible">
      <path
         id="path3795"
         style="font-size:12px;fill-rule:evenodd;stroke-width:0.625;stroke-linejoin:round"
         d="M 8.7185878,4.0337352 -2.2072895,0.01601326 8.7185884,-4.0017078 c -1.7454984,2.3720609 -1.7354408,5.6174519 -6e-7,8.035443 z"
         transform="matrix(-1.1,0,0,-1.1,-1.1,0)"
         inkscape:connector-curvature="0" />
    </marker>
    <marker
       inkscape:stockid="Arrow2Mend"
       orient="auto"
       refY="0"
       refX="0"
       id="Arrow2Mend"
       style="overflow:visible">
      <path
         id="path3801"
         style="font-size:12px;fill-rule:evenodd;stroke-width:0.625;stroke-linejoin:round"
         d="M 8.7185878,4.0337352 -2.2072895,0.01601326 8.7185884,-4.0017078 c -1.7454984,2.3720609 -1.7354408,5.6174519 -6e-7,8.035443 z"
         transform="scale(-0.6,-0.6)"
         inkscape:connector-curvature="0" />
    </marker>
    <inkscape:path-effect
       effect="construct_grid"
       id="path-effect2999"
       is_visible="true"
       nr_x="10"
       nr_y="15" />
    <inkscape:path-effect
       effect="construct_grid"
       id="path-effect2995"
       is_visible="true"
       nr_x="10"
       nr_y="15" />
    <inkscape:path-effect
       effect="construct_grid"
       id="path-effect2991"
       is_visible="true"
       nr_x="10"
       nr_y="10" />
    <marker
       inkscape:stockid="Arrow2Lend"
       orient="auto"
       refY="0"
       refX="0"
       id="Arrow2Lend-6"
       style="overflow:visible">
      <path
         inkscape:connector-curvature="0"
         id="path3795-5"
         style="font-size:12px;fill-rule:evenodd;stroke-width:0.625;stroke-linejoin:round"
         d="M 8.7185878,4.0337352 -2.2072895,0.01601326 8.7185884,-4.0017078 c -1.7454984,2.3720609 -1.7354408,5.6174519 -6e-7,8.035443 z"
         transform="matrix(-1.1,0,0,-1.1,-1.1,0)" />
    </marker>
    <marker
       inkscape:stockid="Arrow2Lend"
       orient="auto"
       refY="0"
       refX="0"
       id="Arrow2Lend-2"
       style="overflow:visible">
      <path
         inkscape:connector-curvature="0"
         id="path3795-2"
         style="font-size:12px;fill-rule:evenodd;stroke-width:0.625;stroke-linejoin:round"
         d="M 8.7185878,4.0337352 -2.2072895,0.01601326 8.7185884,-4.0017078 c -1.7454984,2.3720609 -1.7354408,5.6174519 -6e-7,8.035443 z"
         transform="matrix(-1.1,0,0,-1.1,-1.1,0)" />
    </marker>
  </defs>
  <sodipodi:namedview
     id="base"
     pagecolor="#ffffff"
     bordercolor="#666666"
     borderopacity="1.0"
     inkscape:pageopacity="0.0"
     inkscape:pageshadow="2"
     inkscape:zoom="0.86703093"
     inkscape:cx="421.55144"
     inkscape:cy="766.16598"
     inkscape:document-units="px"
     inkscape:current-layer="layer1"
     showgrid="true"
     inkscape:window-width="1920"
     inkscape:window-height="1176"
     inkscape:window-x="0"
     inkscape:window-y="24"
     inkscape:window-maximized="1"
     fit-margin-top="0"
     fit-margin-left="0"
     fit-margin-right="0"
     fit-margin-bottom="0">
    <inkscape:grid
       type="xygrid"
       id="grid2985"
       units="mm"
       empspacing="4"
       visible="true"
       enabled="true"
       snapvisiblegridlinesonly="true" />
  </sodipodi:namedview>
  <metadata
     id="metadata7">
    <rdf:RDF>
      <cc:Work
         rdf:about="">
        <dc:format>image/svg+xml</dc:format>
        <dc:type
           rdf:resource="http://purl.org/dc/dcmitype/StillImage" />
        <dc:title />
      </cc:Work>
    </rdf:RDF>
  </metadata>
  <g
     inkscape:label="Layer 1"
     inkscape:groupmode="layer"
     id="layer1"
     transform="translate(-25.069928,117.12929)">
    <path
       style="fill:#ffa960;fill-opacity:1;stroke:none"
       d="m 155.9055,76.287827 54.66817,0 273.34081,272.365013 0,817.09506 -54.66817,0 0,-817.09506 z"
       id="path4688"
       inkscape:connector-curvature="0"
       sodipodi:nodetypes="ccccccc" />
    <path
       style="fill:none;stroke:#000000;stroke-width:3.85025167px;stroke-linecap:butt;stroke-linejoin:miter;stroke-opacity:1"
       d="M 101.23734,76.287827 374.57814,348.65286 M 155.9055,76.287827 429.2463,348.65286 M 210.57366,76.287827 483.91446,348.65286 M 265.24182,76.287827 538.58262,348.65286 M 319.90998,76.287827 593.25078,348.65286 M 374.57814,76.287827 647.91894,348.65286 M 429.2463,76.287827 702.5871,348.65286 M 483.91446,76.287827 757.25526,348.65286 M 538.58262,76.287827 811.92342,348.65286 M 593.25078,76.287827 866.59158,348.65286 M 647.91894,76.287827 921.25974,348.65286 m -820.0224,-272.365033 546.6816,0 m -519.34752,27.236503 546.6816,0 m -519.34752,27.2365 546.6816,0 m -519.34752,27.23651 546.6816,0 m -519.34752,27.2365 546.6816,0 m -519.34752,27.2365 546.6816,0 m -519.34752,27.2365 546.6816,0 m -519.34752,27.23651 546.6816,0 m -519.34752,27.2365 546.6816,0 m -519.34752,27.2365 546.6816,0 m -519.34752,27.23651 546.6816,0"
       id="path2989"
       inkscape:connector-curvature="0"
       inkscape:path-effect="#path-effect2991"
       inkscape:original-d="m 128.57142,103.52433 -27.33408,-27.236503 54.66816,0"
       sodipodi:nodetypes="ccc" />
    <path
       style="fill:none;stroke:#000000;stroke-width:3.85025167px;stroke-linecap:butt;stroke-linejoin:miter;stroke-opacity:1"
       d="m 101.23734,76.287827 0,817.095043 m 27.33408,-789.85854 0,817.09504 m 27.33408,-789.85854 0,817.09505 m 27.33408,-789.85854 0,817.09504 m 27.33408,-789.85854 0,817.09506 m 27.33408,-789.85856 0,817.09506 m 27.33408,-789.85856 0,817.09506 m 27.33408,-789.85855 0,817.09505 m 27.33408,-789.85855 0,817.09505 m 27.33408,-789.85855 0,817.09505 m 27.33408,-789.85854 0,817.09504 M 101.23734,76.287827 374.57814,348.65286 m -273.3408,-217.89203 273.3408,272.36503 m -273.3408,-217.89203 273.3408,272.36503 m -273.3408,-217.89202 273.3408,272.36503 m -273.3408,-217.89203 273.3408,272.36503 m -273.3408,-217.89203 273.3408,272.36503 m -273.3408,-217.89202 273.3408,272.36503 m -273.3408,-217.89203 273.3408,272.36503 m -273.3408,-217.89203 273.3408,272.36503 m -273.3408,-217.89203 273.3408,272.36503 m -273.3408,-217.89202 273.3408,272.36503 m -273.3408,-217.89203 273.3408,272.36503 m -273.3408,-217.89203 273.3408,272.36504 m -273.3408,-217.89203 273.3408,272.36503 m -273.3408,-217.89203 273.3408,272.36503 m -273.3408,-217.89203 273.3408,272.36503"
       id="path2993"
       inkscape:connector-curvature="0"
       inkscape:path-effect="#path-effect2995"
       inkscape:original-d="m 101.23734,130.76083 0,-54.473003 27.33408,27.236503"
       sodipodi:nodetypes="ccc" />
    <path
       style="fill:none;stroke:#000000;stroke-width:3.85025167px;stroke-linecap:butt;stroke-linejoin:miter;stroke-opacity:1"
       d="m 374.57814,348.65284 0,817.09516 m 54.66817,-817.09516 0,817.09516 m 54.66817,-817.09516 0,817.09516 m 54.66817,-817.09516 0,817.09516 m 54.66817,-817.09516 0,817.09516 m 54.66817,-817.09516 0,817.09516 m 54.66817,-817.09516 0,817.09516 m 54.66817,-817.09516 0,817.09516 m 54.66817,-817.09516 0,817.09516 m 54.66817,-817.09516 0,817.09516 m 54.66817,-817.09516 0,817.09516 m -546.6817,-817.09516 546.6817,0 m -546.6817,54.47301 546.6817,0 m -546.6817,54.47301 546.6817,0 m -546.6817,54.47301 546.6817,0 m -546.6817,54.47301 546.6817,0 m -546.6817,54.47301 546.6817,0 m -546.6817,54.47301 546.6817,0 m -546.6817,54.47301 546.6817,0 m -546.6817,54.47301 546.6817,0 m -546.6817,54.47301 546.6817,0 m -546.6817,54.47301 546.6817,0 m -546.6817,54.47301 546.6817,0 m -546.6817,54.47305 546.6817,0 m -546.6817,54.473 546.6817,0 m -546.6817,54.473 546.6817,0 m -546.6817,54.473 546.6817,0"
       id="path2997"
       inkscape:connector-curvature="0"
       inkscape:path-effect="#path-effect2999"
       inkscape:original-d="m 374.57814,403.12585 0,-54.47301 54.66817,0" />
    <path
       style="fill:#0000da;fill-opacity:1;stroke:#000000;stroke-width:0;stroke-linecap:butt;stroke-linejoin:miter;stroke-miterlimit:4;stroke-opacity:1;stroke-dasharray:none;marker-end:url(#Arrow2Lend)"
       d="m 56.692913,46.06297 0,28.346457"
       id="path3001"
       inkscape:connector-curvature="0" />
    <path
       style="fill:none;stroke:#000000;stroke-width:1.92512584;stroke-linecap:butt;stroke-linejoin:miter;stroke-miterlimit:4;stroke-opacity:1;stroke-dasharray:none;marker-end:url(#Arrow2Lend)"
       d="m 73.903261,76.287827 0,108.946013"
       id="path4401"
       inkscape:connector-curvature="0" />
    <path
       style="fill:none;stroke:#000000;stroke-width:1.92512584;stroke-linecap:butt;stroke-linejoin:miter;stroke-miterlimit:4;stroke-opacity:1;stroke-dasharray:none;marker-end:url(#Arrow2Lend)"
       d="m 101.23734,49.051325 109.33633,0"
       id="path4401-0"
       inkscape:connector-curvature="0" />
    <path
       style="fill:none;stroke:#000000;stroke-width:1.92512584;stroke-linecap:butt;stroke-linejoin:miter;stroke-miterlimit:4;stroke-opacity:1;stroke-dasharray:none;marker-end:url(#Arrow2Lend)"
       d="m 647.91899,49.051325 54.66813,54.473005"
       id="path4401-6"
       inkscape:connector-curvature="0"
       sodipodi:nodetypes="cc" />
    <text
       xml:space="preserve"
       style="font-size:46.203022px;font-style:normal;font-variant:normal;font-weight:normal;font-stretch:normal;text-align:start;line-height:125%;letter-spacing:0px;word-spacing:0px;writing-mode:lr-tb;text-anchor:start;fill:#000000;fill-opacity:1;stroke:none;font-family:Sans;-inkscape-font-specification:Sans"
       x="101.05648"
       y="35.496487"
       id="text4622"
       sodipodi:linespacing="125%"
       transform="scale(1.0017897,0.99821346)"><tspan
         sodipodi:role="line"
         id="tspan4624"
         x="101.05648"
         y="35.496487">dim=1</tspan></text>
    <text
       xml:space="preserve"
       style="font-size:46.203022px;font-style:normal;font-variant:normal;font-weight:normal;font-stretch:normal;text-align:start;line-height:125%;letter-spacing:0px;word-spacing:0px;writing-mode:lr-tb;text-anchor:start;fill:#000000;fill-opacity:1;stroke:none;font-family:Sans;-inkscape-font-specification:Sans"
       x="646.76141"
       y="-539.07739"
       id="text4622-2"
       sodipodi:linespacing="125%"
       transform="matrix(1.0017897,0.88679893,0,0.99821346,0,0)"><tspan
         sodipodi:role="line"
         id="tspan4647"
         x="646.76141"
         y="-539.07739">dim=2</tspan></text>
    <text
       xml:space="preserve"
       style="font-size:46.203022px;font-style:normal;font-variant:normal;font-weight:normal;font-stretch:normal;text-align:start;line-height:125%;letter-spacing:0px;word-spacing:0px;writing-mode:lr-tb;text-anchor:start;fill:#000000;fill-opacity:1;stroke:none;font-family:Sans;-inkscape-font-specification:Sans"
       x="-171.92273"
       y="60.128609"
       id="text4622-5"
       sodipodi:linespacing="125%"
       transform="matrix(0,-0.99821346,1.0017897,0,0,0)"><tspan
         sodipodi:role="line"
         id="tspan4624-1"
         x="-171.92273"
         y="60.128609">dim=0</tspan></text>
    <path
       style="fill:#01be09;fill-opacity:1;stroke:none"
       d="m 287.92199,17.716513 0,-89.8972 179.79455,0 0,-44.948603 89.8972,89.897203 -89.8972,89.8972 0,-44.9486 z"
       id="path4885"
       inkscape:connector-curvature="0" />
  </g>
</svg>
